<mxfile host="app.diagrams.net" modified="2023-05-10T11:42:14.362Z" agent="Mozilla/5.0 (Macintosh; Intel Mac OS X 10_15_7) AppleWebKit/537.36 (KHTML, like Gecko) Chrome/113.0.0.0 Safari/537.36" etag="BXzoO52plnO9H0omj74M" version="21.2.9" type="device">
  <diagram name="Page-1" id="uvCMhsT3SxwXgy4jt90n">
    <mxGraphModel dx="1080" dy="773" grid="1" gridSize="10" guides="1" tooltips="1" connect="1" arrows="1" fold="1" page="1" pageScale="1" pageWidth="2339" pageHeight="3300" math="0" shadow="0">
      <root>
        <mxCell id="0" />
        <mxCell id="1" parent="0" />
        <mxCell id="fQSxpsxhEva30Ok-m9AY-1" value="Region" style="rounded=0;whiteSpace=wrap;html=1;" vertex="1" parent="1">
          <mxGeometry x="600" y="260" width="120" height="60" as="geometry" />
        </mxCell>
        <mxCell id="fQSxpsxhEva30Ok-m9AY-20" style="edgeStyle=orthogonalEdgeStyle;rounded=0;orthogonalLoop=1;jettySize=auto;html=1;exitX=0.5;exitY=0;exitDx=0;exitDy=0;entryX=0.5;entryY=1;entryDx=0;entryDy=0;" edge="1" parent="1" source="fQSxpsxhEva30Ok-m9AY-2" target="fQSxpsxhEva30Ok-m9AY-1">
          <mxGeometry relative="1" as="geometry" />
        </mxCell>
        <mxCell id="fQSxpsxhEva30Ok-m9AY-2" value="Country" style="rounded=0;whiteSpace=wrap;html=1;" vertex="1" parent="1">
          <mxGeometry x="600" y="350" width="120" height="60" as="geometry" />
        </mxCell>
        <mxCell id="fQSxpsxhEva30Ok-m9AY-17" style="edgeStyle=orthogonalEdgeStyle;rounded=0;orthogonalLoop=1;jettySize=auto;html=1;exitX=0.5;exitY=0;exitDx=0;exitDy=0;entryX=0.5;entryY=1;entryDx=0;entryDy=0;" edge="1" parent="1" source="fQSxpsxhEva30Ok-m9AY-3" target="fQSxpsxhEva30Ok-m9AY-2">
          <mxGeometry relative="1" as="geometry" />
        </mxCell>
        <mxCell id="fQSxpsxhEva30Ok-m9AY-3" value="ADM1" style="rounded=0;whiteSpace=wrap;html=1;" vertex="1" parent="1">
          <mxGeometry x="680" y="470" width="120" height="60" as="geometry" />
        </mxCell>
        <mxCell id="fQSxpsxhEva30Ok-m9AY-16" style="edgeStyle=orthogonalEdgeStyle;rounded=0;orthogonalLoop=1;jettySize=auto;html=1;exitX=0.5;exitY=0;exitDx=0;exitDy=0;entryX=0.5;entryY=1;entryDx=0;entryDy=0;" edge="1" parent="1" source="fQSxpsxhEva30Ok-m9AY-4" target="fQSxpsxhEva30Ok-m9AY-3">
          <mxGeometry relative="1" as="geometry" />
        </mxCell>
        <mxCell id="fQSxpsxhEva30Ok-m9AY-4" value="ADM2" style="rounded=0;whiteSpace=wrap;html=1;" vertex="1" parent="1">
          <mxGeometry x="680" y="550" width="120" height="60" as="geometry" />
        </mxCell>
        <mxCell id="fQSxpsxhEva30Ok-m9AY-15" style="edgeStyle=orthogonalEdgeStyle;rounded=0;orthogonalLoop=1;jettySize=auto;html=1;exitX=0.5;exitY=0;exitDx=0;exitDy=0;entryX=0.5;entryY=1;entryDx=0;entryDy=0;" edge="1" parent="1" source="fQSxpsxhEva30Ok-m9AY-5" target="fQSxpsxhEva30Ok-m9AY-4">
          <mxGeometry relative="1" as="geometry" />
        </mxCell>
        <mxCell id="fQSxpsxhEva30Ok-m9AY-5" value="Village" style="rounded=0;whiteSpace=wrap;html=1;" vertex="1" parent="1">
          <mxGeometry x="680" y="640" width="120" height="60" as="geometry" />
        </mxCell>
        <mxCell id="fQSxpsxhEva30Ok-m9AY-23" style="edgeStyle=orthogonalEdgeStyle;rounded=0;orthogonalLoop=1;jettySize=auto;html=1;exitX=0.5;exitY=0;exitDx=0;exitDy=0;entryX=0.5;entryY=1;entryDx=0;entryDy=0;" edge="1" parent="1" source="fQSxpsxhEva30Ok-m9AY-6" target="fQSxpsxhEva30Ok-m9AY-2">
          <mxGeometry relative="1" as="geometry">
            <Array as="points">
              <mxPoint x="580" y="500" />
              <mxPoint x="660" y="500" />
            </Array>
          </mxGeometry>
        </mxCell>
        <mxCell id="fQSxpsxhEva30Ok-m9AY-6" value="Project" style="rounded=0;whiteSpace=wrap;html=1;" vertex="1" parent="1">
          <mxGeometry x="520" y="550" width="120" height="60" as="geometry" />
        </mxCell>
        <mxCell id="fQSxpsxhEva30Ok-m9AY-21" style="edgeStyle=orthogonalEdgeStyle;rounded=0;orthogonalLoop=1;jettySize=auto;html=1;exitX=0.5;exitY=0;exitDx=0;exitDy=0;entryX=0.5;entryY=1;entryDx=0;entryDy=0;" edge="1" parent="1" source="fQSxpsxhEva30Ok-m9AY-7" target="fQSxpsxhEva30Ok-m9AY-5">
          <mxGeometry relative="1" as="geometry" />
        </mxCell>
        <mxCell id="fQSxpsxhEva30Ok-m9AY-22" style="edgeStyle=orthogonalEdgeStyle;rounded=0;orthogonalLoop=1;jettySize=auto;html=1;exitX=0.5;exitY=0;exitDx=0;exitDy=0;entryX=0.5;entryY=1;entryDx=0;entryDy=0;" edge="1" parent="1" source="fQSxpsxhEva30Ok-m9AY-7" target="fQSxpsxhEva30Ok-m9AY-6">
          <mxGeometry relative="1" as="geometry">
            <Array as="points">
              <mxPoint x="660" y="670" />
              <mxPoint x="580" y="670" />
            </Array>
          </mxGeometry>
        </mxCell>
        <mxCell id="fQSxpsxhEva30Ok-m9AY-7" value="Household" style="rounded=0;whiteSpace=wrap;html=1;" vertex="1" parent="1">
          <mxGeometry x="600" y="740" width="120" height="60" as="geometry" />
        </mxCell>
      </root>
    </mxGraphModel>
  </diagram>
</mxfile>
